<svg xmlns="http://www.w3.org/2000/svg" viewBox="0 0 64 56" width="64" height="56">
	<style>
		tspan { white-space:pre }
		.shp0 { fill: #ffffff } 
	</style>
	<g id="HEADER">
		<g id="Logo">
			<path id="logos" class="shp0" d="M37.11 10.71L26.6 10.71L31.85 19.9L37.11 10.71ZM25.29 11.48L20.03 20.67L30.54 20.67L25.29 11.48ZM43.68 20.67L38.42 11.48L33.17 20.67L43.68 20.67ZM33.17 22.2L38.42 31.39L43.68 22.2L33.17 22.2ZM20.03 22.2L25.29 31.39L30.54 22.2L20.03 22.2ZM13.46 32.15L23.97 32.15L18.72 22.97L13.46 32.15ZM50.24 32.15L44.99 22.97L39.74 32.15L50.24 32.15ZM31.85 -0.01L26.6 9.18L37.11 9.18L31.85 -0.01ZM44.99 42.87L50.24 33.69L39.74 33.69L44.99 42.87ZM18.72 42.87L23.97 33.69L13.46 33.69L18.72 42.87ZM6.9 43.64L17.4 43.64L12.15 34.45L6.9 43.64ZM56.81 43.64L51.56 34.45L46.3 43.64L56.81 43.64ZM46.3 45.17L51.56 54.36L56.81 45.17L46.3 45.17ZM33.17 45.17L38.42 54.36L43.68 45.17L33.17 45.17ZM12.15 54.36L17.4 45.17L6.9 45.17L12.15 54.36ZM0.33 55.13L10.84 55.13L5.58 45.94L0.33 55.13ZM26.6 55.13L37.11 55.13L31.85 45.94L26.6 55.13ZM39.74 55.13L50.24 55.13L44.99 45.94L39.74 55.13ZM58.13 45.94L52.87 55.13L63.38 55.13L58.13 45.94Z" />
		</g>
	</g>
</svg>